<svg width="2000" height="2000" viewBox="0 0 2000 2000" fill="none" xmlns="http://www.w3.org/2000/svg">
<path d="M1565.09 1861H434.311C278.053 1861 150.396 1733.34 150.396 1577.09V446.311C150.396 290.053 278.053 162.396 434.311 162.396H1565.09C1721.34 162.396 1849 290.053 1849 446.311V1577.09C1849 1734.04 1722.04 1861 1565.09 1861Z" stroke="black" stroke-width="23"/>
<path d="M691.714 1320.38C774.029 1402.69 883.549 1448.03 1000.04 1448.03C1116.54 1448.03 1225.36 1402.69 1308.37 1320.38C1390.69 1238.06 1436.03 1128.54 1436.03 1012.05C1436.03 895.552 1390.69 786.032 1308.37 703.718C1226.06 621.404 1116.54 576.061 1000.04 576.061C883.549 576.061 774.029 621.404 691.714 703.718C609.4 786.032 564.058 895.552 564.058 1012.05C564.058 1128.54 609.4 1238.06 691.714 1320.38Z" stroke="black" stroke-width="23"/>
<path d="M1521.01 561.734C1567.25 561.734 1604.72 524.255 1604.72 478.022C1604.72 431.79 1567.25 394.311 1521.01 394.311C1474.78 394.311 1437.3 431.79 1437.3 478.022C1437.3 524.255 1474.78 561.734 1521.01 561.734Z" stroke="black" stroke-width="23"/>
</svg>
