<svg width="2000" height="2000" viewBox="0 0 2000 2000" fill="none" xmlns="http://www.w3.org/2000/svg">
<rect x="0.5" y="0.5" width="1999" height="1999" stroke="black"/>
<path d="M533.648 720.699H178.632V1852.82H533.648V720.699Z" stroke="black" stroke-width="23"/>
<path d="M1493.99 696.157C1480.9 694.521 1467 693.703 1453.09 692.885C1254.31 684.705 1142.25 802.498 1102.98 853.215C1092.35 867.121 1087.44 875.301 1087.44 875.301V723.969H747.968V1856.09H1087.44H1102.98C1102.98 1740.75 1102.98 1626.23 1102.98 1510.89C1102.98 1448.72 1102.98 1386.56 1102.98 1324.39C1102.98 1247.49 1097.26 1165.69 1135.7 1095.34C1168.42 1036.45 1227.32 1007 1293.58 1007C1489.9 1007 1493.99 1184.51 1493.99 1200.87C1493.99 1201.69 1493.99 1202.5 1493.99 1202.5V1861H1849.01V1122.34C1849.01 869.575 1720.58 720.697 1493.99 696.157Z" stroke="black" stroke-width="23"/>
<path d="M356.138 574.276C469.984 574.276 562.276 481.985 562.276 368.138C562.276 254.291 469.984 162 356.138 162C242.291 162 150 254.291 150 368.138C150 481.985 242.291 574.276 356.138 574.276Z" stroke="black" stroke-width="23"/>
</svg>
