<?xml version="1.0" encoding="UTF-8"?>
<svg id="Layer_1" data-name="Layer 1" xmlns="http://www.w3.org/2000/svg" viewBox="0 0 2000 2000">
  <defs>
    <style>
      .cls-1 {
        fill-rule: evenodd;
      }
    </style>
  </defs>
  <path class="cls-1" d="M999.97,109.04c-293.19,0-531.77,236.57-531.77,527.87,0,77.99,33.54,171,81.42,270.78,47.88,99.78,111.09,205.39,174.18,302.28,7.28,11.18,14.58,22.25,21.84,33.18-128.29,21.5-237.38,58.25-318.9,106.32-91.6,54.02-151.74,125.1-151.74,207.24,0,51.4,24.28,99.17,63.3,139.5,39.02,40.33,93.07,74.77,158.52,103.38,130.9,57.22,307.8,91.38,503.15,91.38s372.31-34.16,503.21-91.38c65.45-28.61,119.73-63.05,158.76-103.38,39.02-40.33,63.06-88.1,63.06-139.5,0-82.13-59.91-153.22-151.5-207.24-81.54-48.09-190.78-84.82-319.14-106.32,7.26-10.93,14.56-22,21.84-33.18,63.08-96.89,126.3-202.5,174.18-302.28,47.88-99.78,81.36-192.79,81.36-270.78,0-291.3-238.59-527.87-531.77-527.87ZM999.97,170.48c260.24,0,470.33,208.6,470.33,466.43,0,59.3-29.24,148.27-75.3,244.26-46.06,95.99-108.1,199.77-170.28,295.26-112.35,172.55-204.1,288.16-224.76,314.52-20.66-26.36-112.35-141.97-224.7-314.52-62.17-95.49-124.21-199.27-170.28-295.26-46.06-95.99-75.3-184.96-75.3-244.26,0-257.84,210.03-466.43,470.27-466.43ZM999.97,332.42c-168.82,0-306.54,136.6-306.54,304.5s137.72,304.38,306.54,304.38,306.6-136.48,306.6-304.38-137.78-304.5-306.6-304.5ZM999.97,393.86c135.87,0,245.16,108.62,245.16,243.06s-109.28,242.88-245.16,242.88-245.1-108.44-245.1-242.88,109.22-243.06,245.1-243.06ZM783.67,1299.49c103.28,150.85,192.3,263.34,192.3,263.34,10.57,13.27,29.9,15.46,43.17,4.89,1.81-1.44,3.45-3.08,4.89-4.89,0,0,89.07-112.47,192.36-263.34,134.94,19.8,247.85,57.05,325.8,103.02,81.48,48.06,121.32,102.71,121.32,154.2,0,32.41-14.53,64.55-45.78,96.84-31.25,32.29-78.82,63.27-139.02,89.58-120.39,52.63-290.63,86.4-478.73,86.4s-358.28-33.77-478.67-86.4c-60.2-26.31-107.77-57.29-139.02-89.58-31.25-32.29-45.78-64.43-45.78-96.84,0-51.49,39.83-106.14,121.32-154.2,77.93-45.96,190.96-83.22,325.86-103.02Z"/>
</svg>