<?xml version="1.0" encoding="UTF-8"?>
<svg id="Layer_1" data-name="Layer 1" xmlns="http://www.w3.org/2000/svg" viewBox="0 0 2000 2000">
  <path d="M404.73,476.95c-80.05,0-144.29,67.33-144.29,148.24v749.06c0,80.9,64.23,148.8,144.29,148.8h1190.38c80.05,0,144.29-67.9,144.29-148.8v-749.06c0-80.9-64.23-148.24-144.29-148.24H404.73h0ZM404.73,549.1h1190.38c10.68,0,20.76,3.07,29.87,7.33l-580.53,551.23c-26.65,25.3-61.23,25.3-87.93,0L374.85,556.42c9.12-4.25,19.2-7.33,29.87-7.33ZM333.71,616.73l410.89,389.47-404.12,403.56c-5.06-10.51-7.89-22.54-7.89-35.51v-749.06c0-2.93.85-5.63,1.12-8.46h0ZM1666.12,616.73c.29,2.82,1.12,5.53,1.12,8.46v749.06c0,12.78-2.97,24.55-7.89,34.95l-402.99-403.56,409.76-388.9h0ZM1203.95,1055.8l394.54,395.1H401.91l395.1-394.54,109.91,103.71c52.35,49.62,134.79,49.69,187.12,0l109.91-104.27Z"/>
</svg>