<?xml version="1.0" encoding="UTF-8"?>
<svg id="Layer_1" data-name="Layer 1" xmlns="http://www.w3.org/2000/svg" viewBox="0 0 2000 2000">
  <path d="M1632.41,1574.67c-73.81,73.16-129.88,138.55-243.01,153.88-166.46,22.5-372.24-102.69-498.39-199.26-261.86-200.57-566.93-550.55-610.41-883.73-22.1-169.27,15.45-239.67,126.88-349.09l88.28-87.44c38.01-37.1,59.01-71.66,115.08-78.76,63.64-10.76,91.28,40.62,116.84,84.83l112.73,196.13c49.36,86,59.66,101.84-20.67,181.32-20.8,20.6-144.09,134.58-144.94,157.66-1.7,43.29,107.91,190.52,139.47,229.37l-.07.07c87.57,108.89,193.05,202.05,311.93,275.48,47.53,28.95,50.07,31.69,90.76-10.63,25.89-26.93,97.8-105.37,124.34-120.62,61.55-35.34,102.04-4.5,146.12,32.08l183.74,151.92c39.58,33.06,78.37,54.51,78.31,112.6,0,44.86-30.78,67.87-59.85,97.02l-57.13,57.19ZM610.71,177.93c-27.91,7.43-46.88,30.45-65.79,51.12,17.93,30.06,207.41,350.72,215.24,354.31l1.5-.98c90.11-92.32,84.7-64.22,13.56-187.58l-82.15-143.64c-19.23-32.99-33.51-77.33-79.35-73.42l-3.01.18ZM508.4,265.03c-26.08,24.45-51.18,50.27-76.55,75.44-71.79,71.33-102.63,107.91-106.15,218.09-12.91,403.13,498.99,944.57,862.03,1087.3,121.99,47.92,226.64,57.44,334.55-31.1,28.88-24.45,57.25-56.07,84.44-83.13-32.21-25.04-63.11-51.97-94.54-78.05l-179.37-148.4c-19.63-16.17-38.4-33.38-58.42-49.1-81.24,83-91.67,95.52-191.3,29.93-114.82-75.24-217.57-167.43-304.75-273.39-40.36-49.23-150.74-196.46-150.88-258.38-.13-50.86,60.7-100.15,96.63-134.12l-129.23-212.82c-9.52-15.84-79.35-137.25-86.46-142.27h0ZM1382.96,1158.68c-31.69,6.39-52.68,41.47-74.92,62.53,27.78,24.06,56.53,46.94,84.83,70.35l118.21,98c41.53,34.04,81.89,70.03,124.67,102.5l5.54,5.02c36.06-36.71,92.59-71.39,35.86-121.21-62.14-54.51-127.27-106.8-191.5-158.76-31.75-25.75-60.05-62.46-102.69-58.42h0Z"/>
  <path d="M1664.69,843.25c-37.49-10.69-25.36-65.66-31.43-101.58-40.49-237.27-243.26-441.99-488.81-448.58-14.47.59-28.95.2-43.29-1.17-12.91-1.3-22.36-12.71-21.32-25.69.98-12.91,12.13-22.69,25.1-21.97,65.79-2.09,131.38,8.41,193.25,30.91,106.28,37.62,199.38,105.23,268.1,194.69,68.66,89.46,109.99,196.91,118.86,309.31,2.41,26.21,7.76,51.12-20.47,64.09h0Z"/>
  <path d="M1472.86,831.18c-2.67-14.8-4.11-29.86-4.3-44.92-8.48-85.87-47.4-165.87-109.86-225.54-62.4-59.59-144.09-94.8-230.29-99.3-12.32,1.5-24.84.13-36.58-3.91-8.74-4.96-13.43-14.93-11.67-24.91,1.76-9.91,9.65-17.6,19.63-19.23,39.84-6.26,112.6,9.52,150.88,23.67h.07c73.22,27.78,137.18,75.7,184.39,138.23,47.27,62.46,75.89,137.05,82.67,215.17,1.89,21.71,5.02,43.23-18.52,52.81h-.07c-10.24.78-20.21-3.78-26.34-12.06h0Z"/>
  <path d="M1327.46,843.25c-27.71-.2-25.36-25.49-26.99-45.97-6.85-83.33-79.09-151.07-159.42-164.96-13.76-2.41-39.12.39-49.94-6.65-20.54-13.37-11.02-39.77,13.82-43.23,196.78-10.95,293.09,238.12,222.53,260.8h0Z"/>
</svg>