<svg width="101" height="106" viewBox="0 0 101 106" fill="none" xmlns="http://www.w3.org/2000/svg">
<g id="Group 1171275326">
<g id="Group 1171275325">
<path id="Vector" d="M44.3041 79.518V82.2426H51.1623V79.518H44.3041ZM31.1156 0.831478V24.6181L33.7171 23.2401V5.26654L61.7481 20.1439V35.4098L64.3508 36.7891V18.47L31.1156 0.831478Z" fill="#DD2525"/>
<path id="Vector_2" d="M33.7166 23.24L31.1152 24.618L11.0685 35.2376V82.2425H44.3037V17.6316L33.7166 23.24ZM41.701 79.5178H13.6699V72.7883L27.9847 65.5895L26.8572 63.1334L13.6687 69.7664V60.6773L27.9835 53.4797L26.856 51.0236L13.6674 57.6554V48.5675L27.9822 41.3687L26.8547 38.9126L13.6662 45.5457V36.9128L31.1114 27.6724L33.7129 26.2945L41.6973 22.0641V79.5178H41.701Z" fill="#DD2525"/>
<path id="Vector_3" d="M64.3505 36.7895L61.7478 35.4102L51.162 29.8032V82.243H84.3972V47.4092L64.3505 36.7895ZM81.7957 57.8072L68.3067 51.0242L67.1792 53.4803L81.7957 60.8291V69.9182L68.3067 63.1339L67.1792 65.59L81.7957 72.9401V79.5184H53.7647V34.2343L61.7478 38.4647L64.3505 39.8427L81.7957 49.0844V57.8072Z" fill="#DD2525"/>
</g>
<g id="REALSTA">
<path id="Vector_4" d="M88.0084 105.512L93.3107 90.0915H95.7079L101 105.512H98.8059L97.4245 101.47H91.6042L90.2126 105.512H88.0084ZM92.1426 99.4013H96.8557L94.4991 92.3096L92.1426 99.4013Z" fill="#111923"/>
<path id="Vector_5" d="M79.9177 105.512V92.171H75.2655V90.0915H86.5506V92.171H82.1117V105.512H79.9177Z" fill="#111923"/>
<path id="Vector_6" d="M66.2944 105.726C65.5766 105.726 64.8859 105.633 64.2222 105.448C63.5654 105.263 62.9661 104.99 62.4243 104.627C61.8894 104.257 61.4458 103.799 61.0937 103.251C60.7483 102.704 60.5316 102.064 60.4436 101.332H62.7087C62.8239 101.886 63.0507 102.352 63.3893 102.729C63.7347 103.106 64.1647 103.39 64.6793 103.582C65.2007 103.774 65.7763 103.87 66.4061 103.87C66.9885 103.87 67.5268 103.774 68.0212 103.582C68.5155 103.39 68.915 103.113 69.2198 102.75C69.5245 102.388 69.6769 101.943 69.6769 101.417C69.6769 100.827 69.4872 100.362 69.108 100.02C68.7356 99.6719 68.1735 99.3946 67.4219 99.1885L64.4762 98.4207C63.7651 98.2429 63.1388 97.9905 62.597 97.6635C62.0553 97.3294 61.6354 96.8921 61.3375 96.3518C61.0395 95.8044 60.8905 95.129 60.8905 94.3256C60.8905 93.4298 61.1242 92.6514 61.5914 91.9902C62.0654 91.3219 62.7054 90.8065 63.5112 90.4439C64.3238 90.0813 65.2414 89.9 66.2639 89.9C67.4354 89.9 68.4207 90.1098 69.2198 90.5292C70.0256 90.9487 70.6351 91.5032 71.0481 92.1928C71.468 92.8753 71.6813 93.6182 71.6881 94.4216H69.4737C69.4128 93.7675 69.2265 93.2486 68.915 92.8646C68.6103 92.4736 68.2209 92.1928 67.7469 92.0222C67.2797 91.8516 66.7616 91.7662 66.1928 91.7662C65.1906 91.7662 64.4355 92.0009 63.9277 92.4701C63.4265 92.9322 63.176 93.4832 63.176 94.123C63.176 94.7131 63.3588 95.1788 63.7245 95.52C64.097 95.8613 64.6455 96.1243 65.37 96.3092L68.2142 97.045C69.108 97.2512 69.8224 97.5604 70.3574 97.9728C70.8992 98.378 71.2885 98.8579 71.5255 99.4124C71.7625 99.9598 71.8811 100.561 71.8811 101.215C71.8811 102.089 71.6474 102.868 71.1802 103.55C70.7129 104.225 70.0595 104.759 69.2198 105.15C68.3868 105.534 67.4117 105.726 66.2944 105.726Z" fill="#111923"/>
<path id="Vector_7" d="M47.0615 105.512L47.0717 90.0915H49.2759V103.507H56.0612V105.512H47.0615Z" fill="#111923"/>
<path id="Vector_8" d="M29.4108 105.512L34.713 90.0915H37.1102L42.4023 105.512H40.2083L38.8269 101.47H33.0066L31.615 105.512H29.4108ZM33.5449 99.4013H38.258L35.9015 92.3096L33.5449 99.4013Z" fill="#111923"/>
<path id="Vector_9" d="M15.8785 105.512V90.0915H25.3657L25.3556 92.075H18.0624V96.7566H24.5734V98.7081H18.0523V103.496L25.5384 103.507V105.512H15.8785Z" fill="#111923"/>
<path id="Vector_10" d="M0 105.512V90.0915H5.83046C6.92071 90.0915 7.82473 90.2692 8.54254 90.6247C9.26034 90.9731 9.7953 91.4707 10.1474 92.1177C10.4996 92.7646 10.6756 93.5289 10.6756 94.4105C10.6756 95.2423 10.5402 95.9354 10.2693 96.49C10.0052 97.0445 9.65987 97.496 9.23325 97.8443C8.8134 98.1927 8.36986 98.4664 7.90261 98.6655L10.7467 105.512H8.46127L5.86093 99.06H2.17372V105.512H0ZM2.17372 97.2151H5.24132C6.26385 97.2151 7.05614 96.9841 7.61819 96.522C8.18025 96.0528 8.46127 95.3845 8.46127 94.5171C8.46127 93.664 8.20395 93.017 7.6893 92.5762C7.18142 92.1355 6.4907 91.9151 5.61715 91.9151H2.17372V97.2151Z" fill="#111923"/>
</g>
</g>
</svg>
