<?xml version="1.0" encoding="UTF-8"?>
<svg id="Layer_1" data-name="Layer 1" xmlns="http://www.w3.org/2000/svg" viewBox="0 0 2000 2000">
  <path d="M648.89,271.47c-8.52,4.6-17.5,7.32-26.48,8.83-8.6,2.11-17.05,3.09-24.59,3.47-15.16.68-26.55-1.13-26.55-1.13,0,0,2.41-10.86,9.58-24.9,3.62-7.02,8.37-14.86,14.64-22.41,6.56-6.94,14.64-13.5,24.07-18.63,18.63-10.86,40.06-11.24,55.6-9.51,15.62,1.66,25.95,5.66,25.95,5.66,0,0-4.83,10.64-13.73,22.93-9.05,12.3-21.88,25.87-38.47,35.68h0ZM575.33,378.67c8.3-1.21,15.99-3.47,22.63-5.96,13.28-4.98,22.33-10.94,22.33-10.94,0,0-3.39-9.51-10.79-20.44-7.39-10.86-19.01-23.46-35.61-27.08-16.67-3.7-36.21,1.43-50.92,8.3-14.26,7.39-24.44,15.39-24.44,15.39,0,0,4.38,9.43,13.2,19.16,8.83,9.81,22.1,19.99,38.93,22.63,8.37,1.36,16.75.68,24.67-1.06h0ZM506.91,468.67c6.11-4.38,11.09-8.68,14.56-11.92,3.7-3.17,5.81-4.98,5.81-4.98,0,0-5.96-8.83-16.37-18.03-10.26-9.05-25.57-18.86-43.83-18.33-18.11.68-36.36,11.32-50.02,21.8-12.75,11.24-20.97,22.03-20.97,22.03,0,0,6.87,8.37,18.41,16.07,11.54,7.69,27.76,14.64,45.57,12.98,17.43-2.04,34.48-10.94,46.85-19.61h0ZM437.35,582.73c5.36-6.56,9.58-11.77,12.6-15.47,3.09-4,4.75-6.56,4.75-6.56,0,0-8.22-7.69-21.05-14.56-12.82-6.87-30.25-12.9-49.41-8.22-18.94,4.75-34.48,20.37-46.02,34.32-5.96,6.94-9.73,13.88-12.52,18.94-2.72,5.05-4.22,8.3-4.22,8.3,0,0,9.05,6.94,22.71,11.99,13.58,5.13,31.83,8.37,49.49,2.34,17.8-5.96,33.5-19.01,43.68-31.08h0ZM391.11,708.79c8.9-14.26,13.13-26.4,13.13-26.4,0,0-10.18-6.11-24.74-10.34-14.64-4.15-33.72-6.41-52.05,2.72-9.05,4.6-17.58,11.47-24.07,19.61-6.41,8.15-11.62,17.2-15.77,25.72-4.15,8.45-7.24,16.29-9.28,22.03-1.89,5.73-2.41,9.43-2.41,9.43,0,0,10.86,5.05,25.87,7.17,15.24,2.19,33.8,1.36,51.6-8.45,17.65-9.81,29.12-27.08,37.72-41.49h0ZM357.16,867.74c5.28-8.75,9.13-17.88,11.99-26.18,2.79-8.3,4.6-15.77,5.66-21.2,1.21-5.51,1.89-8.68,1.89-8.68,0,0-11.54-4.15-27.46-5.36-15.84-1.21-36.51.45-52.81,13.81-16.14,13.35-27.39,35.68-31.68,54.84-4.53,19.16-5.21,34.7-5.21,34.7,0,0,11.99,2.87,27.91,1.89s35.76-5.73,51.3-19.54c7.77-6.94,13.5-15.47,18.41-24.29h0ZM370.52,976.07c3.09-18.11,2.34-32.14,2.34-32.14,0,0-12.75-1.96-29.19-.08s-36.66,7.69-51.45,24.74c-7.39,8.52-12.75,19.01-16.6,30.03-3.24,10.94-4.38,22.25-5.05,32.59-1.13,20.59,1.06,36.66,1.06,36.66,0,0,12.82.38,28.89-3.92,16.14-4.3,35.53-13.28,48.96-30.48,13.81-17.28,17.05-39.15,21.05-57.41h0ZM393.9,1137.74c1.06-10.64.75-21.05.98-30.63-.3-18.94-3.77-32.97-3.77-32.97,0,0-13.43.53-29.87,5.73-16.45,5.21-35.98,15.16-47.83,35.53-5.73,10.11-9.81,22.18-10.79,33.95-.91,11.77-.08,23.76,1.36,34.4,1.43,10.64,3.47,19.99,5.13,26.71,1.51,6.71,3.39,10.56,3.39,10.56,0,0,13.28-2.41,28.67-10.26,15.16-7.69,33.12-20.97,43.6-41.34,5.21-10.03,8-20.97,9.13-31.68h0ZM441.88,1229.92c-3.85-19.09-10.03-32.59-10.03-32.59,0,0-13.58,3.32-29.35,11.99-15.77,8.68-33.65,22.86-41.79,46.24-2.04,5.81-3.32,11.99-4.07,18.26-.3,6.04,0,12.22.68,18.41,1.43,12.3,4.6,24.44,8.07,35.08,3.39,10.79,7.47,19.84,11.32,25.8,3.55,6.19,6.04,9.81,6.04,9.81,0,0,12.9-5.43,26.78-16.9,14.11-11.54,28.52-28.37,34.63-51,6.87-23.01,2.72-46.55-2.26-65.1h0ZM522.6,1368.96c-2.94-11.09-7.32-21.2-11.84-29.8-4.9-8.3-8.37-16.45-11.62-21.73-3.09-5.36-5.28-8.45-5.28-8.45,0,0-13.05,6.26-27.23,18.48-14.18,12.22-29.5,30.55-32.97,56.2-1.96,24.52,8.75,51.68,20.75,71.59,13.13,19.01,26.1,31.68,26.1,31.68,0,0,11.62-8.6,23.01-23.54,11.39-14.94,22.78-36.14,23.46-59.75.08-11.54-1.58-23.46-4.38-34.7h0ZM616.3,1456.62c-5.36-10.34-11.54-19.84-17.8-27.46-6.19-7.69-12.45-13.65-16.9-17.95-4.15-4.75-6.94-7.39-6.94-7.39,0,0-11.69,9.35-23.39,24.97-11.62,15.69-23.46,38.17-19.84,63.67,3.32,25.8,19.92,51.45,38.1,67.07,8.75,8.22,17.05,14.94,23.23,19.54,6.04,4.83,10.41,6.56,10.41,6.56,0,0,9.43-11.77,16.9-29.65,7.32-17.5,13.58-42.17,9.05-66.54-2.19-12.3-6.94-23.31-12.82-32.82h0ZM725.08,1516.29c-7.92-8.45-16.9-14.33-24.44-21.27-15.39-12.67-29.27-18.86-29.27-18.86,0,0-9.43,12.45-17.2,30.86-7.69,18.48-13.5,43-3.92,68.73,8.9,26.93,34.32,43.98,55.6,57.26,10.64,6.79,21.43,9.2,28.89,11.99,7.54,2.41,12.3,3.55,12.3,3.55,0,0,5.96-14.33,8.22-34.48,2.41-20.07,1.43-45.79-9.66-67.37-5.36-11.99-12.6-22.1-20.52-30.4h0ZM812.14,1531.3c-9.43-2.56-17.43-6.71-23.46-8.3-5.96-1.89-9.73-2.64-9.73-2.64,0,0-6.04,14.94-8.75,35.61-2.64,20.44-2.04,47.6,14.56,70.54,8.45,10.64,20.07,19.31,32.74,26.25,6.34,3.47,12.9,6.49,19.46,9.2,6.64,2.04,13.2,3.39,19.54,4.6,25.27,4.68,45.34,4.6,45.34,4.6,0,0,1.51-15.92-2.19-36.74-3.62-20.75-12.15-46.55-29.35-65.71-17.43-17.95-39.46-31.31-58.16-37.42h0ZM454.34,273.58c-.68,18.71,8.75,32.51,18.03,41.87,9.35,9.35,18.56,14.26,18.56,14.26,0,0,8.9-9.51,17.95-23.61,9.58-13.65,20.22-31.16,22.1-49.64,1.81-18.56-4.9-33.42-12.9-43.98-7.92-10.56-16.82-16.45-16.82-16.45,0,0-11.32,9.88-23.08,24.52-5.88,7.32-11.77,15.77-16.45,24.67-4.15,9.28-7.02,19.01-7.39,28.37h0ZM336.73,401.45c3.24,19.61,15.77,31.99,27.16,39.83,11.47,7.77,21.88,11.01,21.88,11.01,0,0,7.09-11.69,13.35-28.21,7.24-15.84,14.03-36.51,11.99-56.05-1.89-19.31-11.77-33.27-22.25-42.62-10.26-9.28-20.52-13.5-20.52-13.5,0,0-2.56,2.94-6.19,8.15-3.39,5.36-7.92,12.9-12.3,21.73-8.68,17.43-16.82,39.83-13.13,59.67h0ZM248.69,550.59c7.24,19.76,22.48,30.4,35.76,36.36,13.28,5.96,24.59,7.32,24.59,7.32,0,0,1.21-3.39,2.79-9.05,1.36-5.36,3.32-13.05,5.73-22.56,4.38-17.8,6.56-40.89,1.13-60.43-5.13-19.39-18.56-32.29-30.93-39.91-12.3-7.69-23.54-10.18-23.54-10.18,0,0-1.96,3.62-4.68,9.66-2.79,5.96-6.34,14.48-8.75,24.52-5.13,19.92-9.43,44.51-2.11,64.27h0ZM191.58,713.92c10.11,19.09,28.59,27.61,43.08,31.46,14.79,3.85,26.55,3.32,26.55,3.32,0,0,.45-3.62,1.21-9.88.91-6.11,1.89-14.56,2.26-24.22s.08-20.52-1.58-31.46c-1.58-10.86-3.55-21.5-8.22-31.23-9.13-19.24-25.35-30.25-39.46-36.14-14.03-5.88-26.03-6.56-26.03-6.56,0,0-4.98,16.29-7.62,37.57-2.34,21.43-.3,48.06,9.81,67.14h0ZM165.71,884.86c14.48,18.11,33.95,23.84,49.71,25.42,15.84,1.58,27.99-.98,27.99-.98,0,0,.45-15.69-2.79-35.83-3.47-20.14-7.39-44.58-20.97-63.07-13.43-18.48-31.38-27.08-46.92-30.86-15.47-3.77-27.91-2.56-27.91-2.56,0,0-.91,4.38-1.21,11.62s-.38,17.28.45,28.52c.75,11.24,2.41,23.61,5.51,35.46,3.47,11.99,8.98,23.23,16.14,32.29h0ZM170.53,1058.15c17.8,16.45,38.78,19.24,55.37,18.26,16.52-.98,28.67-5.66,28.67-5.66,0,0-2.04-16.29-8.52-36.51-3.17-10.11-7.77-21.2-13.2-31.99-4.83-10.79-11.09-21.12-19.16-29.57-16.29-16.9-36.97-22.93-53.56-24.37-16.67-1.51-29.19,1.66-29.19,1.66,0,0,.68,18.56,5.51,41.64,3.92,23.08,16.67,50.09,34.1,66.54h0ZM206.37,1229.1c21.12,14.03,43.23,13.28,60.35,9.28,16.97-4,28.44-10.86,28.44-10.86,0,0-1.74-3.92-4.07-10.56-2.49-6.56-6.19-15.54-11.24-25.42-5.05-9.88-11.39-20.59-19.09-30.63-7.62-10.11-15.16-19.84-25.2-27.23-19.61-14.79-41.94-17.65-59.3-16.52-17.35,1.13-29.72,6.41-29.72,6.41,0,0,3.85,19.16,12.82,42.25,4.07,11.62,10.79,23.84,19.01,35,8.07,11.24,17.43,21.27,27.99,28.29h0ZM274.34,1391.82c24.74,10.49,48.36,5.05,64.73-2.04,16.6-7.24,27.01-16.52,27.01-16.52,0,0-2.34-3.85-6.56-9.81-4.53-5.81-10.03-14.33-16.75-23.69-6.87-9.28-15.16-19.09-24.82-28.06-4.83-4.45-9.96-8.75-15.47-12.6-5.05-4-10.34-7.62-15.99-10.56-22.63-11.77-46.09-11.01-63.75-6.94-17.65,4.07-29.5,11.54-29.5,11.54,0,0,7.32,19.24,20.67,41.57,14.41,22.03,36.36,46.32,60.43,57.11h0ZM375.58,1539c28.29,5.51,50.39-4.22,65.78-14.94,15.39-10.79,24.07-22.41,24.07-22.41,0,0-12.22-13.96-31.23-28.97-17.88-15.99-41.27-34.25-68.12-41.19-25.2-8-49.04-3.02-66.39,4.38-17.35,7.32-28.06,17.2-28.06,17.2,0,0,2.79,4.6,7.77,11.92,5.13,7.17,11.77,17.43,21.95,27.01,9.81,9.88,21.43,20.14,33.87,28.82,12.45,8.75,25.95,15.62,40.36,18.18h0ZM509.03,1662.19c29.95-.08,49.94-14.56,63.37-29.5,13.2-14.64,19.16-28.37,19.16-28.37,0,0-4.38-2.19-10.79-6.79-6.56-4.45-15.92-10.26-27.08-16.07-23.01-10.71-50.17-24.9-78.53-26.86-28.74-1.58-51.68,7.77-67.82,18.63-16.22,10.86-25.2,23.08-25.2,23.08,0,0,3.77,4.3,10.34,10.86,6.94,6.26,17.35,14.33,29.42,22.63,12.15,8.22,25.95,16.82,40.74,23.08,15.54,5.58,31.46,9.28,46.39,9.28h0ZM671.23,1751.59c31.16-8.9,47.9-29.35,57.33-47.3,9.43-17.95,11.84-33.34,11.84-33.34,0,0-4.75-1.74-12.67-3.92-7.77-2.64-19.39-4.15-31.76-8.07-24.67-7.47-57.71-10.94-86.08-8.15-28.97,4.07-50.85,19.61-64.95,34.48-14.18,14.79-20.44,29.04-20.44,29.04,0,0,20.52,13.05,49.19,25.12,13.96,6.56,31.31,10.41,48.36,12.82,16.97,2.34,34.1,2.64,49.19-.68h0ZM854.47,1793.38c28.97-16.45,40.13-41.04,44.66-61.33,4.45-20.29,2.64-36.44,2.64-36.44,0,0-20.67-2.49-47.68-.91-6.79.38-13.96,1.13-21.35,1.96-7.32.23-14.86.75-22.48,1.74-15.24,1.96-30.7,5.81-44.96,12.45-28.14,11.62-46.02,31.76-56.66,50.24-10.64,18.26-13.43,34.17-13.43,34.17,0,0,6.04,2.19,16.07,5.05,10.11,2.64,23.99,7.32,40.59,8.15,32.97,2.72,73.55,2.87,102.6-15.09h0ZM1331.93,190.83c-15.99,1.51-26.55,5.36-26.55,5.36,0,0,5.05,10.71,14.33,23.23,9.28,12.52,22.63,26.33,39.83,36.44,8.75,4.75,18.03,7.62,27.23,9.28,8.83,2.26,17.43,3.39,25.2,3.77,15.47.91,27.08-.75,27.08-.75,0,0-2.56-11.01-10.11-25.27-3.77-7.09-8.75-15.09-15.16-22.78-6.86-7.09-15.16-13.81-24.82-19.09-19.16-11.16-41.04-11.77-57.03-10.18h0ZM1538.27,245.15c-4.6-8.9-10.56-17.35-16.45-24.67-11.77-14.64-23.08-24.52-23.08-24.52,0,0-8.9,5.88-16.82,16.45-8,10.56-14.71,25.5-12.9,43.98,1.89,18.48,12.52,36.06,22.1,49.64,9.05,14.18,17.95,23.61,17.95,23.61,0,0,9.2-4.9,18.56-14.26,9.28-9.35,18.71-23.16,18.03-41.87-.38-9.28-3.24-19.01-7.39-28.37h0ZM1650.07,341.71c-4.38-8.83-8.9-16.37-12.3-21.73-3.62-5.21-6.19-8.15-6.19-8.15,0,0-10.26,4.22-20.52,13.5-10.49,9.35-20.37,23.31-22.25,42.62-2.04,19.54,4.75,40.21,11.99,56.05,6.26,16.52,13.35,28.21,13.35,28.21,0,0,10.41-3.17,21.88-11.01s23.91-20.22,27.16-39.83c3.77-19.76-4.38-42.17-13.13-59.67h0ZM1749.27,486.25c-2.41-10.03-5.96-18.48-8.75-24.52-2.72-6.04-4.68-9.66-4.68-9.66,0,0-11.24,2.49-23.54,10.18-12.37,7.69-25.8,20.52-30.93,39.91-5.36,19.54-3.17,42.62,1.13,60.43,2.41,9.51,4.3,17.2,5.73,22.56,1.58,5.66,2.79,9.05,2.79,9.05,0,0,11.32-1.36,24.59-7.32s28.52-16.6,35.76-36.36c7.24-19.69,2.94-44.28-2.11-64.27h0ZM1818.15,646.94c-2.64-21.27-7.62-37.57-7.62-37.57,0,0-11.92.68-26.03,6.56-14.11,5.81-30.33,16.82-39.46,36.14-4.68,9.66-6.64,20.29-8.22,31.23-1.66,10.86-1.96,21.8-1.58,31.46s1.36,18.18,2.26,24.22c.75,6.26,1.21,9.88,1.21,9.88,0,0,11.84.6,26.55-3.32,14.48-3.85,32.97-12.37,43.08-31.46,10.18-19.24,12.22-45.87,9.81-67.14h0ZM1850.51,852.73c3.09-11.84,4.75-24.22,5.51-35.46.75-11.24.68-21.27.45-28.52-.3-7.24-1.21-11.62-1.21-11.62,0,0-12.52-1.21-27.91,2.56-15.54,3.77-33.5,12.37-46.92,30.86-13.58,18.48-17.5,42.93-20.97,63.07-3.17,20.07-2.79,35.83-2.79,35.83,0,0,12.22,2.56,27.99.98,15.84-1.58,35.31-7.39,49.71-25.42,7.09-9.2,12.6-20.44,16.14-32.29h0ZM1863.56,991.62c4.83-23.01,5.51-41.64,5.51-41.64,0,0-12.52-3.17-29.12-1.66-16.6,1.43-37.27,7.47-53.56,24.37-8.15,8.45-14.41,18.86-19.16,29.57-5.43,10.71-10.03,21.8-13.2,31.99-6.49,20.22-8.52,36.51-8.52,36.51,0,0,12.15,4.68,28.67,5.66,16.52.98,37.49-1.81,55.37-18.26,17.35-16.45,30.1-43.45,34.02-66.54h0ZM1821.62,1200.89c8.22-11.16,14.86-23.39,19.01-35,8.98-23.08,12.82-42.25,12.82-42.25,0,0-12.37-5.28-29.72-6.41-17.35-1.13-39.68,1.74-59.3,16.52-9.96,7.32-17.58,17.12-25.2,27.23-7.69,10.03-14.11,20.75-19.09,30.63-5.05,9.88-8.75,18.86-11.24,25.42-2.34,6.64-4.07,10.56-4.07,10.56,0,0,11.47,6.86,28.44,10.86,17.2,4,39.3,4.83,60.35-9.28,10.56-7.09,19.91-17.12,27.99-28.29h0ZM1786.09,1334.87c13.28-22.41,20.67-41.57,20.67-41.57,0,0-11.84-7.54-29.5-11.54-17.65-4.07-41.11-4.9-63.75,6.94-5.66,2.94-11.01,6.56-15.99,10.56-5.43,3.85-10.64,8.07-15.47,12.6-9.66,8.98-18.03,18.86-24.82,28.06-6.71,9.35-12.22,17.8-16.75,23.69-4.22,5.96-6.56,9.81-6.56,9.81,0,0,10.41,9.28,27.01,16.52,16.37,7.09,39.98,12.6,64.73,2.04,24.07-10.94,46.02-35.23,60.43-57.11h0ZM1664.63,1520.83c12.45-8.68,24.07-18.94,33.87-28.82,10.18-9.58,16.82-19.91,21.95-27.01,4.98-7.24,7.77-11.92,7.77-11.92,0,0-10.71-9.88-28.06-17.2-17.35-7.39-41.11-12.37-66.39-4.38-26.86,6.86-50.24,25.2-68.12,41.19-18.94,15.01-31.23,28.97-31.23,28.97,0,0,8.75,11.62,24.07,22.41,15.39,10.71,37.57,20.44,65.78,14.94,14.56-2.56,28.06-9.43,40.36-18.18h0ZM1537.29,1653c14.79-6.26,28.59-14.86,40.74-23.08,12.07-8.37,22.41-16.37,29.42-22.63,6.56-6.56,10.34-10.86,10.34-10.86,0,0-8.98-12.22-25.2-23.08-16.14-10.94-39.08-20.29-67.82-18.63-28.44,1.96-55.6,16.14-78.53,26.86-11.09,5.81-20.44,11.62-27.08,16.07-6.41,4.6-10.79,6.79-10.79,6.79,0,0,6.04,13.73,19.16,28.37,13.43,14.86,33.42,29.42,63.37,29.5,15.01-.08,30.93-3.77,46.39-9.28h0ZM1378.03,1752.28c16.97-2.49,34.4-6.26,48.36-12.82,28.67-12.07,49.19-25.12,49.19-25.12,0,0-6.26-14.26-20.44-29.04-14.11-14.86-35.98-30.4-64.95-34.48-28.37-2.79-61.33.6-86.08,8.15-12.3,3.92-23.91,5.43-31.76,8.07-7.92,2.26-12.67,3.92-12.67,3.92,0,0,2.41,15.39,11.84,33.34,9.43,17.88,26.18,38.4,57.34,47.3,15.01,3.32,32.14,3.02,49.19.68h0ZM1248.05,1808.48c16.6-.83,30.4-5.51,40.59-8.15,10.03-2.87,16.07-5.05,16.07-5.05,0,0-2.79-15.92-13.43-34.17-10.56-18.48-28.52-38.62-56.66-50.24-14.26-6.64-29.72-10.41-44.96-12.45-7.62-.98-15.16-1.51-22.48-1.74-7.39-.83-14.56-1.66-21.35-1.96-27.01-1.58-47.68.91-47.68.91,0,0-1.81,16.14,2.64,36.44,4.53,20.29,15.69,44.89,44.66,61.33,29.12,17.95,69.71,17.8,102.6,15.09h0ZM1449.32,379.74c16.75-2.64,30.1-12.82,38.93-22.63,8.83-9.81,13.2-19.16,13.2-19.16,0,0-10.11-8.07-24.44-15.39-14.79-6.87-34.25-11.92-50.92-8.3s-28.29,16.22-35.61,27.08c-7.39,10.94-10.79,20.44-10.79,20.44,0,0,9.05,5.96,22.33,10.94,6.64,2.49,14.41,4.75,22.63,5.96,7.92,1.74,16.29,2.41,24.67,1.06h0ZM1539.93,488.3c17.8,1.66,34.02-5.28,45.57-12.98,11.54-7.62,18.41-16.07,18.41-16.07,0,0-8.22-10.79-20.97-22.03-13.65-10.49-31.91-21.12-50.02-21.8-18.26-.53-33.5,9.28-43.83,18.33-10.41,9.2-16.37,18.03-16.37,18.03,0,0,2.11,1.81,5.81,4.98,3.47,3.24,8.45,7.54,14.56,11.92,12.37,8.68,29.42,17.58,46.85,19.61h0ZM1606.24,613.83c17.73,6.04,35.91,2.72,49.49-2.34,13.65-5.05,22.71-11.99,22.71-11.99,0,0-1.43-3.24-4.22-8.3-2.79-5.05-6.56-12.07-12.52-18.94-11.54-13.96-27.08-29.57-46.02-34.32-19.16-4.68-36.59,1.36-49.41,8.22-12.82,6.87-21.05,14.56-21.05,14.56,0,0,1.66,2.56,4.75,6.56,3.02,3.7,7.32,8.9,12.6,15.47,10.26,12.07,25.95,25.12,43.68,31.08h0ZM1646.75,750.3c17.8,9.81,36.36,10.71,51.6,8.45,15.09-2.11,25.87-7.17,25.87-7.17,0,0-.6-3.7-2.41-9.43-2.04-5.73-5.05-13.58-9.28-22.03-4.15-8.45-9.43-17.58-15.77-25.72-6.49-8.15-15.01-15.01-24.07-19.61-18.33-9.13-37.42-6.94-52.05-2.72-14.64,4.22-24.74,10.34-24.74,10.34,0,0,4.22,12.15,13.13,26.4,8.45,14.41,19.91,31.68,37.72,41.49h0ZM1661.31,891.97c15.54,13.81,35.38,18.56,51.3,19.54,15.92.98,27.91-1.89,27.91-1.89,0,0-.68-15.54-5.21-34.7-4.3-19.16-15.54-41.57-31.68-54.84-16.29-13.35-37.04-15.01-52.81-13.81-15.92,1.28-27.46,5.36-27.46,5.36,0,0,.68,3.24,1.89,8.68,1.06,5.43,2.79,12.9,5.66,21.2,2.79,8.3,6.71,17.43,11.99,26.18,4.83,8.9,10.56,17.43,18.41,24.29h0ZM1650.52,1033.5c13.43,17.2,32.82,26.18,48.96,30.48,16.07,4.38,28.89,3.92,28.89,3.92,0,0,2.19-16.07,1.06-36.66-.6-10.26-1.81-21.65-5.05-32.59-3.85-11.01-9.2-21.5-16.6-30.03-14.79-16.97-34.93-22.78-51.45-24.74-16.45-1.89-29.19.08-29.19.08,0,0-.75,14.03,2.34,32.14,4,18.26,7.24,40.13,21.05,57.41h0ZM1615.22,1169.52c10.49,20.37,28.37,33.57,43.6,41.34,15.39,7.85,28.67,10.26,28.67,10.26,0,0,1.89-3.77,3.39-10.56,1.66-6.64,3.77-16.07,5.13-26.71,1.43-10.64,2.19-22.63,1.36-34.4-.98-11.84-5.05-23.84-10.79-33.95-11.84-20.37-31.31-30.33-47.83-35.53-16.45-5.21-29.87-5.73-29.87-5.73,0,0-3.47,14.03-3.77,32.97.23,9.58-.08,19.99.98,30.63,1.13,10.64,3.92,21.58,9.13,31.68h0ZM1555.77,1295.05c6.11,22.63,20.52,39.46,34.63,51,13.88,11.47,26.78,16.9,26.78,16.9,0,0,2.49-3.62,6.04-9.81,3.85-6.04,7.92-15.09,11.32-25.8,3.55-10.64,6.64-22.78,8.07-35.08.68-6.11.98-12.3.68-18.41-.75-6.26-2.04-12.37-4.07-18.26-8.07-23.39-26.03-37.49-41.79-46.24-15.77-8.68-29.35-11.99-29.35-11.99,0,0-6.19,13.5-10.03,32.59-4.9,18.56-9.05,42.1-2.26,65.1h0ZM1473.01,1403.68c.75,23.61,12.07,44.89,23.46,59.75,11.39,14.94,23.01,23.54,23.01,23.54,0,0,12.98-12.75,26.1-31.68,11.99-19.91,22.71-47.07,20.75-71.59-3.47-25.65-18.78-43.98-32.97-56.2-14.18-12.22-27.23-18.48-27.23-18.48,0,0-2.19,3.09-5.28,8.45-3.24,5.28-6.71,13.43-11.62,21.73-4.53,8.6-8.9,18.71-11.84,29.8-2.79,11.24-4.45,23.16-4.38,34.7h0ZM1370.79,1489.3c-4.45,24.37,1.74,49.11,9.05,66.54,7.47,17.8,16.9,29.65,16.9,29.65,0,0,4.45-1.74,10.41-6.56,6.11-4.6,14.48-11.32,23.23-19.54,18.18-15.62,34.78-41.27,38.1-67.07,3.62-25.42-8.22-47.9-19.84-63.67-11.69-15.62-23.39-24.97-23.39-24.97,0,0-2.79,2.64-6.94,7.39-4.45,4.38-10.71,10.26-16.9,17.95-6.26,7.62-12.45,17.12-17.8,27.46-5.81,9.66-10.56,20.67-12.82,32.82h0ZM1254.54,1546.71c-11.17,21.58-12.07,47.3-9.66,67.37,2.34,20.07,8.22,34.48,8.22,34.48,0,0,4.68-1.13,12.3-3.55,7.39-2.79,18.26-5.21,28.89-11.99,21.27-13.28,46.7-30.33,55.6-57.26,9.58-25.72,3.77-50.24-3.92-68.73-7.77-18.41-17.2-30.86-17.2-30.86,0,0-13.88,6.26-29.27,18.86-7.47,6.94-16.52,12.82-24.44,21.27-8.07,8.3-15.31,18.41-20.52,30.4h0ZM1129.69,1568.52c-17.2,19.16-25.72,44.96-29.35,65.71-3.7,20.82-2.19,36.74-2.19,36.74,0,0,20.07.08,45.34-4.6,6.34-1.21,12.9-2.56,19.54-4.6,6.56-2.64,13.13-5.73,19.46-9.2,12.67-6.94,24.29-15.54,32.74-26.25,16.6-23.01,17.28-50.09,14.56-70.54-2.79-20.67-8.75-35.61-8.75-35.61,0,0-3.77.75-9.73,2.64-6.04,1.58-14.03,5.81-23.46,8.3-18.71,6.34-40.74,19.69-58.16,37.42h0Z"/>
</svg>