<?xml version="1.0" encoding="UTF-8"?>
<svg id="Layer_1" data-name="Layer 1" xmlns="http://www.w3.org/2000/svg" viewBox="0 0 2000 2000">
  <path d="M415.51,294.64c-14.93.06-26.98,12.21-26.93,27.14v1353.91h-125.13c-.93-.05-1.87-.05-2.8,0-14.94.79-26.42,13.54-25.63,28.48.79,14.92,13.51,26.39,28.43,25.64h1512.94c14.94.01,27.07-12.09,27.08-27.03.01-14.94-12.09-27.07-27.03-27.08h-125.13v-922.46c-.03-14.93-12.16-27.01-27.09-26.98-.02,0-.03,0-.05,0h-425.06v-404.47c.06-14.93-12-27.08-26.93-27.14-.07,0-.14,0-.21,0H415.51ZM442.65,348.76h702.4v1326.93h-222.7v-253.58c-.03-14.87-12.06-26.92-26.93-26.98h-203.16c-14.93-.06-27.08,12-27.14,26.93v.05s0,253.58,0,253.58h-222.48V348.76ZM548.4,446.7c-14.93.06-26.98,12.21-26.93,27.14v178.03c.06,14.85,12.08,26.87,26.93,26.93h175.02c14.85-.06,26.87-12.08,26.93-26.93v-178.03c.06-14.93-12-27.08-26.93-27.14h-175.02ZM864.28,446.7c-14.93-.06-27.08,12-27.14,26.93,0,.07,0,.14,0,.21v178.03c.06,14.93,12.21,26.98,27.14,26.93h174.81c14.93.06,27.08-12,27.14-26.93v-178.03c.06-14.93-12-27.08-26.93-27.14-.07,0-.14,0-.21,0h-174.81ZM575.54,500.82h120.75v123.91h-120.75v-123.91ZM891.21,500.82h120.96v123.91h-120.96v-123.91ZM548.4,762.58c-14.93.06-26.98,12.21-26.93,27.14v178.03c.06,14.85,12.08,26.87,26.93,26.93h175.02c14.85-.06,26.87-12.08,26.93-26.93v-178.03c.06-14.93-12-27.08-26.93-27.14h-175.02ZM864.28,762.58c-14.93-.06-27.08,12-27.14,26.93,0,.07,0,.14,0,.21v178.03c.06,14.93,12.21,26.98,27.14,26.93h174.81c14.93.06,27.08-12,27.14-26.93v-178.03c.06-14.93-12-27.08-26.93-27.14-.07,0-.14,0-.21,0h-174.81ZM1199.12,780.37h398.09v895.32h-398.09v-895.32ZM575.54,816.7h120.75v123.91h-120.75v-123.91ZM891.21,816.7h120.96v123.91h-120.96v-123.91ZM1310.67,953.97c-14.93-.06-27.08,12-27.14,26.93,0,.07,0,.14,0,.21v177.98c.06,14.93,12.21,26.98,27.14,26.93h175.02c14.85-.06,26.87-12.08,26.93-26.93v-177.98c.06-14.93-12-27.08-26.93-27.14h-175.02ZM1337.6,1008.03h120.96v123.91h-120.96v-123.91ZM545.81,1078.67c-13.83,1.39-24.35,13.03-24.34,26.93v178.03c-.06,14.93,12,27.08,26.93,27.14h175.02c14.93-.06,26.98-12.21,26.93-27.14v-178.03c-.06-14.85-12.08-26.87-26.93-26.93h-175.02c-.86-.04-1.73-.04-2.59,0ZM861.48,1078.67c-13.83,1.39-24.35,13.03-24.34,26.93v178.03c-.06,14.93,12,27.08,26.93,27.14.07,0,.14,0,.21,0h174.81c14.93.06,27.08-12,27.14-26.93,0-.07,0-.14,0-.21v-178.03c-.06-14.93-12.21-26.98-27.14-26.93h-174.81c-.93-.05-1.87-.05-2.8,0ZM575.54,1132.74h120.75v123.91h-120.75v-123.91ZM891.21,1132.74h120.96v123.91h-120.96v-123.91ZM1310.67,1269.85c-14.93-.06-27.08,12-27.14,26.93,0,.07,0,.14,0,.21v177.98c.06,14.93,12.21,26.98,27.14,26.93h175.02c14.85-.06,26.87-12.08,26.93-26.93v-177.98c.06-14.93-12-27.08-26.93-27.14h-175.02ZM1337.6,1323.91h120.96v123.91h-120.96v-123.91ZM719.2,1449.25h149.26v226.44h-149.26v-226.44Z"/>
</svg>