<?xml version="1.0" encoding="UTF-8"?>
<svg id="Layer_1" data-name="Layer 1" xmlns="http://www.w3.org/2000/svg" viewBox="0 0 2000 2000">
  <path d="M435.48,1133.83c-30.54,35.48-19.75,53.39-67.28,19.55l-125.41-86.83c-19.29-13.23-61.88-31.4-49.64-56.48,11.19-19.95,23.57-39.23,37.06-57.67l183.54-283.73c5.79-8.95,10.99-22.84,21.72-26.53,12.84,2.96,24.69,9.28,34.3,18.23l47.2,31.6c40.42,26.99,81.7,53.19,121.59,81.04,12.24,8.56,16.19,13.1,10.14,28.5,30.08,42.26,73.86,17.77,112.37,5.53,77.61-24.62,135.54-9.02,210-25.94,148.77-33.84,151.93,17.25,275.1,46.41,51.35,12.18,65.83-6.06,107.3-31.73-12.71-29.69,24.95-40.95,47.2-54.24l125.87-77.42c13.89-8.56,37.06-27.78,50.16-8.1,17.71,26.73,33.38,55.36,50.16,82.68l112.63,184.06c15.34,25.28,61.22,92.82,69.52,115.86-7.64,24.62-42.13,37.39-62.47,49.96-51.94,32.39-105.26,62.6-156.87,95.39-5.86-9.74-12.44-19.02-18.83-28.37-43.71,28.11-88.67,54.18-131.2,84.06l1.58,3.16v.13c12.51,21.79,15.21,47.86,7.31,71.75-10.8,27.65-35.81,47.27-65.24,51.22,4.28,61.42-36.4,107.83-100.65,91.37-14.88,62.34-65.57,82.95-121.79,57.6l-.07-.07c-3.69,32.12-27.12,58.39-58.59,65.76-38.64,8.03-64.45-12.71-94.86-32.59-24.69,44.43-73.53,60.83-110.59,21.26-46.74,45.88-121.32,15.4-134.03-44.7l-8.03.13h.07c-21.79.72-42.86-7.5-58.39-22.84-15.47-15.27-23.9-36.34-23.37-58.06-57.4-2.83-87.62-36.54-85.64-93.68-53.45-36.93-97.56-77.35-58.06-146.08v-.07c-32.91-21.07-64.25-44.57-93.81-70.17h0ZM446.67,698.36c-10.14,12.51-18.7,26.53-27.58,40.02l-47.4,72.74c-44.04,67.21-89.46,133.96-131.72,202.23,52.47,34.76,101.77,70.17,152.72,106.38,14.68-27.25,33.7-53.12,50.62-79l87.09-133.37h.07c21.2-36.47,44.37-71.82,69.32-105.85-48.45-38.05-99.6-72.48-153.12-103.09v-.07ZM1551.81,698.36c-27.58,18.04-132.98,86.3-152.92,91.57h.07c11.72,24.88,25.48,48.78,41.21,71.36l72.94,119.94c10.6,17.45,81.96,139.43,88.41,144.56l1.58-.59c48.06-29.23,105.52-65.43,155.03-91.44-19.02-35.09-42.53-68.46-63.59-102.43l-95.85-157.66c-6.78-10.93-42.66-72.41-46.8-75.24l-.07-.07ZM1043.54,812.18c-30.08,3.62-59.84,9.35-89.13,17.05-27.78,6.25-37.06,4.28-56.09,26.66l-72.87,87.36c-23.3,30.41-49.83,58.32-79.06,83.08,72.28,24.82,106.77-7.44,156.21-44.83,33.18-25.08,93.68-50.56,135.21-36.73,34.76,11.52,76.23,50.16,105.79,71.95l94.4,69.45v.07c17.71,11.13,34.16,24.23,48.98,39.04,25.94,10.93,94.99,65.37,120.47,84.85,45.16-31.93,93.02-60.7,139.69-90.25-59.25-94.79-114.81-191.9-174.25-286.49-149.96,107.24-214.73-34.76-329.35-21.2h0ZM844.48,833.31c-87.49,13.89-143.05,62.21-220.13,7.5-56.48,85.51-111.05,172.4-168.33,257.39,33.7,24.69,68.73,48.38,101.25,74.65,41.47-20.93,92.09-7.57,117.83,31.14,23.3-14.35,52.07-16.85,77.55-6.78,25.54,10.07,44.76,31.53,52.07,57.93,58.72-.33,103.35,41.08,95.06,101.84h-.07c23.96,3.95,44.9,18.23,57.21,39.1,12.38,20.87,14.81,46.08,6.71,68.92,21.79,15.86,101.38,79.32,126.26,75.38,12.84-1.71,23.7-10.34,28.37-22.38,4.67-12.05,2.37-25.74-5.92-35.61-22.51-24.36-83.6-52.79-98.22-71.1v-.07c-4.54-5.6-5.86-13.23-3.42-20.08,2.37-6.85,8.16-11.92,15.27-13.43,19.68-3.55,115.07,70.77,135.67,84.52,13.82,9.22,27.58,24.82,45.49,22.71,19.75-3.23,34.03-20.74,33.18-40.75-3.29-20.93-110.59-83.08-131.86-97.3-33.24-23.11-8.62-52.93,13.5-43.45l-.07.07c12.77,6.98,24.95,15.21,36.21,24.42,40.02,27.32,86.89,60.89,128.1,85.05v.07c17.05,9.87,38.84,4.74,49.7-11.65,10.93-16.39,7.24-38.44-8.43-50.36-30.35-23.7-70.04-50.03-101.97-71.56l-.07.07c-16.92-10.01-33.11-21.26-48.38-33.7-8.03-7.04-9.68-18.89-3.88-27.91,5.79-8.95,17.25-12.31,26.99-7.9,44.37,23.04,134.62,105.52,169.05,112.44,10.66,1.78,21.59-1.32,29.75-8.43,8.16-7.18,12.71-17.58,12.38-28.37-1.84-29.95-38.18-48.19-59.51-64.05-44.11-32.85-89.46-64.05-133.77-96.7l-132.58-97.1c-20.21-14.55-52.86-47.79-79.59-45.16-55.63,5.46-78.27,42.13-116.39,65.43-54.31,33.11-132.98,42.79-185.38.53-26.33-21.26,0-39.17,15.93-54.31l.07-.07c50.82-50.56,98.35-104.34,142.39-160.95-6.06-.07-12.05-.26-18.04,0h0ZM599.79,1207.1c-12.84.79-24.75,6.91-32.78,16.92-8.1,10.01-11.59,22.91-9.68,35.61,4.02,22.58,31.07,36.6,48.38,48.84,7.11-.99,32.59-46.8,35.81-55.16,9.74-25.08-19.09-46.34-41.74-46.21h0ZM720.78,1232.77c-13.17,1.84-24.62,10.01-30.68,21.92l-37.39,60.76c-8.89,12.38-16.52,25.67-22.65,39.63-9.35,27.12,18.63,47,42.86,46.34,26.27-7.11,56.15-70.31,71.16-94.66,9.15-14.88,21.92-27.32,17.31-46.02h-.07c-6.06-17.12-22.38-28.37-40.55-27.98ZM816.04,1298.47c-28.9,5.07-55.63,63-70.5,87.29h-.07c-11.32,15.93-21.2,32.85-29.56,50.56-9.74,24.95,16.26,46.34,39.37,45.29,29.03-6.06,59.51-71.16,75.84-96.64,9.94-15.4,30.02-34.1,25.8-53.91-5.33-18.43-21.72-31.53-40.88-32.59h0ZM881.41,1401.42c-21.92,5.99-58.52,74.25-71.03,95.78v.07c-6.32,12.31-4.87,27.12,3.62,38.05,8.49,10.93,22.51,15.93,36.01,12.84,24.62-7.77,82.42-97.3,75.05-120.07h.07c-2.11-9.48-7.9-17.64-16.19-22.71-8.23-5-18.17-6.45-27.52-3.95h0ZM940.26,1504.12c-5.66,9.61-12.24,19.09-17.45,28.9,8.62,12.24,15.73,18.37,30.81,15.07v.07c8.16-6.25,14.75-14.28,19.29-23.5-10.73-7.04-21.59-13.96-32.65-20.54h0Z"/>
</svg>