<?xml version="1.0" encoding="UTF-8"?>
<svg id="Layer_1" data-name="Layer 1" xmlns="http://www.w3.org/2000/svg" viewBox="0 0 2000 2000">
  <defs>
    <style>
      .cls-1 {
        fill-rule: evenodd;
      }
    </style>
  </defs>
  <path class="cls-1" d="M607.48,535.92h-139.58v63.16h139.58v-63.16ZM1538.43,535.92h-139.58v63.16h139.58v-63.16ZM1368.17,467.11c-4.06-11.75-9.79-22.12-16.82-30.74-11.53-14.14-26.54-22.84-42.42-22.84h-611.54c-15.88,0-30.89,8.7-42.42,22.84-7.03,8.63-12.76,19.07-16.82,30.74h3.77c19,0,34.44,15.37,34.44,34.44v31.32h653.75v-31.32c0-19,15.37-34.44,34.44-34.44h3.77-.15ZM567.09,467.11h-52.57c7.47-43,25.23-81.21,50.03-110.29,29.51-34.73,69.03-56.12,111.95-56.12h653.31c42.93,0,82.44,21.39,111.95,56.12,24.73,29.15,42.56,67.29,50.03,110.29h-52.57c-6.02-28.42-18.2-53.95-34.59-74.03-24.44-29.95-58.15-48.36-95.64-48.36h-611.62c-37.49,0-71.2,18.42-95.64,48.36-16.39,20.08-28.57,45.61-34.59,74.03h-.07ZM958.65,1138.4l44.52,32.34,88.9-64.61-33.93-104.49h-110l-33.93,104.49,44.45,32.27ZM872.22,1013.1l-564.34-77.73h-.15c-3.19-.44-5.95-1.6-7.61-3.26-.22-.22-.36-.44-.36-.65v-326.29c0-.94.44-1.81,1.09-2.47s1.52-1.09,2.47-1.09h95.79v31.83c0,19,15.37,34.44,34.44,34.44h208.4c19,0,34.44-15.37,34.44-34.44v-31.83h653.75v31.83c0,19,15.37,34.44,34.44,34.44h208.4c19,0,34.44-15.37,34.44-34.44v-31.83h95.79c.94,0,1.81.44,2.47,1.09s1.09,1.52,1.09,2.47v326.29c0,.22-.15.44-.36.65-1.67,1.67-4.42,2.83-7.76,3.34l-564.71,76.57-17.33-53.22c-3.77-14.86-17.26-25.89-33.35-25.89h-159.88v.07c-14.5,0-27.99,9.21-32.7,23.71l-18.34,56.49-.1-.07ZM1737.04,1256.81c-59.1-59.1-140.81-95.64-231.01-95.64s-171.92,36.55-231.01,95.64-95.64,140.81-95.64,231.01,36.55,171.92,95.64,231.01c59.09,59.09,140.81,95.64,231.01,95.64s171.92-36.55,231.01-95.64c59.1-59.1,95.64-140.81,95.64-231.01s-36.55-171.92-95.64-231.01ZM1718.05,1153.85c24.51,15.59,47.2,33.79,67.65,54.24,71.57,71.57,115.87,170.47,115.87,279.66s-44.3,208.1-115.87,279.66c-71.57,71.57-170.47,115.87-279.66,115.87s-208.1-44.3-279.66-115.87c-38.72-38.72-69.39-85.34-89.4-137.33H382.14c-25.89,0-49.31-10.51-66.35-27.55-16.97-16.97-27.55-40.46-27.55-66.35v-534.9c-14.14-3.63-26.97-10.73-36.84-20.52-12.69-12.69-20.52-29.51-20.52-49.31v-326.29c0-19.94,8.12-38,21.24-51.12,13.05-13.05,31.18-21.24,51.12-21.24h95.79v-31.32c0-19,15.37-34.44,34.44-34.44h11.67c8.19-60.11,32.34-113.98,67-154.66,42.42-49.89,100.28-80.63,164.38-80.63h653.31c64.1,0,121.96,30.67,164.38,80.63,34.59,40.75,58.81,94.55,67,154.66h11.67c19,0,34.44,15.37,34.44,34.44v31.32h95.79c19.94,0,38,8.12,51.12,21.24,13.12,13.05,21.24,31.18,21.24,51.12v326.29c0,19.87-7.83,36.62-20.52,49.31-9.86,9.86-22.7,16.89-36.84,20.59v152.49h-.08ZM1506.03,1092.29c-109.2,0-208.1,44.3-279.66,115.87s-115.87,170.47-115.87,279.66c0,25.16,2.39,49.74,6.82,73.52l-735.17-.07c-6.82,0-13.12-2.83-17.69-7.4s-7.4-10.8-7.4-17.69v-524.76l493.58,67.94-9.06,27.99c-5.15,14.07-.65,30.45,12.11,39.66l128.7,93.54c11.75,8.92,28.35,9.5,40.9.44l129.36-93.97c11.75-8.48,17.26-23.93,12.54-38.43l-9.86-30.31,493.93-67v107.68c-44.38-17.26-92.67-26.76-143.21-26.76v.09ZM1471.58,1306.13c0-19,15.37-34.44,34.44-34.44s34.44,15.37,34.44,34.44v165.4l88.17,72.22c14.72,12.04,16.89,33.72,4.86,48.36-12.04,14.72-33.72,16.89-48.36,4.86l-99.85-81.79c-8.27-6.31-13.56-16.17-13.56-27.41v-181.64h-.15Z"/>
</svg>