<?xml version="1.0" encoding="UTF-8"?>
<svg id="Layer_1" data-name="Layer 1" xmlns="http://www.w3.org/2000/svg" viewBox="0 0 2000 2000">
  <path d="M949.51,985.74h-71.85c-9.3,0-16.85,7.54-16.85,16.85v71.85c0,9.3,7.54,16.85,16.85,16.85h71.85c9.3,0,16.85-7.54,16.85-16.85v-71.85c0-9.3-7.54-16.85-16.85-16.85ZM932.67,1057.59h-38.09v-38.09h38.09v38.09ZM1133.65,985.74h-71.85c-9.3,0-16.85,7.54-16.85,16.85v71.85c0,9.3,7.54,16.85,16.85,16.85h71.85c9.3,0,16.85-7.54,16.85-16.85v-71.85c0-9.3-7.54-16.85-16.85-16.85ZM1116.8,1057.59h-38.09v-38.09h38.09v38.09ZM949.59,1147.38h-71.85c-9.3,0-16.85,7.54-16.85,16.85v71.85c0,9.3,7.54,16.85,16.85,16.85h71.85c9.3,0,16.85-7.54,16.85-16.85v-71.85c0-9.3-7.54-16.85-16.85-16.85ZM932.74,1219.23h-38.09v-38.09h38.09v38.09ZM1133.73,1147.38h-71.85c-9.3,0-16.85,7.54-16.85,16.85v71.85c0,9.3,7.54,16.85,16.85,16.85h71.85c9.3,0,16.85-7.54,16.85-16.85v-71.85c0-9.3-7.54-16.85-16.85-16.85ZM1116.88,1219.23h-38.09v-38.09h38.09v38.09ZM1368.39,1048.65h-71.85c-9.3,0-16.85,7.54-16.85,16.85v71.85c0,9.3,7.54,16.85,16.85,16.85h71.85c9.3,0,16.85-7.54,16.85-16.85v-71.85c0-9.3-7.54-16.85-16.85-16.85ZM1351.55,1120.5h-38.08v-38.09h38.08v38.09ZM1480.67,1154.26h71.85c9.3,0,16.85-7.54,16.85-16.85v-71.85c0-9.3-7.54-16.85-16.85-16.85h-71.85c-9.3,0-16.85,7.54-16.85,16.85v71.85c0,9.3,7.54,16.85,16.85,16.85ZM1497.52,1082.41h38.08v38.09h-38.08v-38.09ZM1368.39,1210.3h-71.85c-9.3,0-16.85,7.54-16.85,16.85v71.85c0,9.3,7.54,16.85,16.85,16.85h71.85c9.3,0,16.85-7.54,16.85-16.85v-71.85c0-9.3-7.54-16.85-16.85-16.85ZM1351.55,1282.15h-38.08v-38.08h38.08v38.08ZM1480.67,1315.91h71.85c9.3,0,16.85-7.54,16.85-16.85v-71.85c0-9.3-7.54-16.85-16.85-16.85h-71.85c-9.3,0-16.85,7.54-16.85,16.85v71.85c0,9.3,7.54,16.85,16.85,16.85ZM1497.52,1244.06h38.08v38.08h-38.08v-38.08ZM1086.33,290.08c0-9.3,7.54-16.85,16.85-16.85h223.61c9.3,0,16.85,7.54,16.85,16.85s-7.54,16.85-16.85,16.85h-223.61c-9.3,0-16.85-7.54-16.85-16.85ZM1086.33,400.23c0-9.3,7.54-16.85,16.85-16.85h223.61c9.3,0,16.85,7.54,16.85,16.85s-7.54,16.85-16.85,16.85h-223.61c-9.3,0-16.85-7.54-16.85-16.85ZM1086.33,510.39c0-9.3,7.54-16.85,16.85-16.85h223.61c9.3,0,16.85,7.54,16.85,16.85s-7.54,16.85-16.85,16.85h-223.61c-9.3,0-16.85-7.54-16.85-16.85ZM1103.18,637.39c-9.3,0-16.85-7.54-16.85-16.85s7.54-16.85,16.85-16.85h223.61c9.3,0,16.85,7.54,16.85,16.85s-7.54,16.85-16.85,16.85h-223.61ZM518.12,694.81h248.87c9.3,0,16.85-7.54,16.85-16.85v-52c0-9.3-7.54-16.85-16.85-16.85h-248.87c-9.3,0-16.85,7.54-16.85,16.85v52c0,9.3,7.54,16.85,16.85,16.85ZM534.97,642.81h215.12v18.31h-215.12v-18.31ZM518.12,810.24h248.87c9.3,0,16.85-7.54,16.85-16.85v-52c0-9.3-7.54-16.85-16.85-16.85h-248.87c-9.3,0-16.85,7.54-16.85,16.85v52c0,9.3,7.54,16.85,16.85,16.85ZM534.97,758.24h215.12v18.31h-215.12v-18.31ZM783.83,856.75c0-9.3-7.54-16.85-16.85-16.85h-248.87c-9.3,0-16.85,7.54-16.85,16.85v52c0,9.3,7.54,16.85,16.85,16.85h248.87c9.3,0,16.85-7.54,16.85-16.85v-52ZM750.07,891.91h-215.12v-18.31h215.12v18.31ZM440.92,1361.04c0-9.3,7.54-16.85,16.85-16.85h257.96c9.3,0,16.85,7.54,16.85,16.85s-7.54,16.85-16.85,16.85h-257.96c-9.3,0-16.85-7.54-16.85-16.85ZM440.92,1436.62c0-9.3,7.54-16.85,16.85-16.85h257.96c9.3,0,16.85,7.54,16.85,16.85s-7.54,16.85-16.85,16.85h-257.96c-9.3,0-16.85-7.54-16.85-16.85ZM440.92,1512.21c0-9.3,7.54-16.85,16.85-16.85h257.96c9.3,0,16.85,7.54,16.85,16.85s-7.54,16.85-16.85,16.85h-257.96c-9.3,0-16.85-7.54-16.85-16.85ZM1827.91,1670.7h-80.27v-76.46c0-9.3-7.54-16.85-16.85-16.85h-80.27v-613.69c0-9.3-7.54-16.85-16.85-16.85h-192.49V210.34c0-9.3-7.54-16.85-16.85-16.85h-418.73c-9.3,0-16.85,7.54-16.85,16.85v612.09l-119.9,80.05v-404.81c0-.37-.07-.66-.07-1.03-.07-.73-.07-1.46-.22-2.2-.15-.51-.29-1.03-.44-1.61-.15-.51-.29-1.03-.51-1.54s-.51-1.03-.73-1.46-.44-.95-.73-1.39-.66-.88-1.03-1.32-.66-.88-1.03-1.25c-.51-.59-1.17-1.03-1.83-1.54-.22-.22-.44-.37-.66-.59l-.07-.07-168.68-115.72-.15-240.9c0-9.3-7.54-16.85-16.85-16.85h-66.5c-9.3,0-16.85,7.54-16.85,16.85v172.05l-149.71-102.69h-.07c-.95-.66-1.9-1.17-2.93-1.61-.29-.15-.59-.15-.88-.29-.73-.29-1.46-.51-2.27-.73-1.1-.22-2.2-.37-3.37-.37h-.07c-.29,0-.59.07-.88.07-.81.07-1.54.07-2.34.22-.51.15-1.03.29-1.54.44-.51.15-1.1.29-1.61.51-.51.22-1.03.51-1.46.73-.44.22-.95.44-1.39.73-.51.29-.88.66-1.32,1.1-.44.37-.81.59-1.17,1.03-.59.51-1.03,1.17-1.54,1.83-.22.22-.44.44-.59.66v.07c-.66.95-1.17,1.9-1.61,2.93-.15.29-.15.51-.22.81-.29.73-.59,1.54-.73,2.42-.22,1.1-.37,2.2-.37,3.37v1051.84h-38.82c-9.3,0-16.85,7.54-16.85,16.85v298.39h-80.27c-9.3,0-16.85,7.54-16.85,16.85v76.46h-80.27c-9.3,0-16.85,7.54-16.85,16.85v93.31c0,9.3,7.54,16.85,16.85,16.85h1644.81c9.3,0,16.85-7.54,16.85-16.85v-93.31c0-9.3-7.54-16.85-16.85-16.85l-.3-.02ZM1616.75,1577.39h-108.91v-184.57c0-9.3-7.54-16.85-16.85-16.85h-133.45c-9.3,0-16.85,7.54-16.85,16.85v184.57h-108.91v-596.85h384.96v596.85ZM1424.26,1577.39h-49.88v-167.65h99.76v167.65h-49.88ZM1089.11,1577.39v-184.57c0-9.3-7.54-16.85-16.85-16.85h-133.45c-9.3,0-16.85,7.54-16.85,16.85v184.57h-108.91v-597.15l48.27-32.23s.07,0,.07-.07l153.59-102.54s.07,0,.07-.07l183.03-122.17v854.16h-108.91l-.07.08ZM955.66,1577.39v-167.65h99.76v167.65h-99.76ZM1022.38,227.24h384.96v719.61h-175.63v-255.09c0-.29-.07-.51-.07-.73-.07-.88-.07-1.68-.29-2.56-.15-.59-.29-1.1-.51-1.68-.15-.51-.29-1.03-.44-1.46-.37-.88-.88-1.76-1.32-2.56-.07-.15-.15-.29-.22-.37-.59-.95-1.32-1.76-2.12-2.56-.37-.37-.73-.59-1.17-.95s-.88-.81-1.39-1.17c-.44-.29-.95-.51-1.39-.73-.51-.29-.95-.59-1.46-.81s-1.03-.29-1.61-.51c-.51-.15-1.03-.37-1.61-.44-1.1-.22-2.2-.37-3.3-.37h-.07c-.22,0-.51.07-.73.07-.88.07-1.68.07-2.56.29-.59.15-1.1.29-1.68.51-.51.15-1.03.29-1.46.44-.88.37-1.68.81-2.49,1.32l-.44.22-.07.07s-.07,0-.07.07l-183.03,122.17.29-572.83-.07.07ZM450,242.4l149.78,102.76s.07,0,.07.07l66.5,45.63.07.07,168.68,115.72v71.85l-384.96-264.19v-71.85l-.15-.07ZM626.15,144.04h32.74v200.76l-32.74-22.48.07-178.34-.07.07ZM450,355.2l384.96,264.19v305.64l-48.19,32.15c-.95.59-1.76,1.32-2.56,2.12-.37.37-.59.73-.88,1.1-.44.51-.88.95-1.17,1.46-.29.44-.51.88-.73,1.32-.29.51-.59,1.03-.81,1.54s-.29,1.03-.44,1.46c-.15.51-.37,1.1-.51,1.68-.22,1.1-.29,2.2-.37,3.3v291h-329.29l.07-907.03-.08.06ZM394.26,1295.92h384.96v281.55h-384.96v-281.55ZM297.14,1611.22h1416.79v59.55l-1416.73-.07v-59.55l-.06.07ZM1811.06,1764.08l-1610.96-.07v-59.55h1611.04v59.55l-.07.07Z"/>
</svg>