<?xml version="1.0" encoding="UTF-8"?>
<svg id="Layer_1" data-name="Layer 1" xmlns="http://www.w3.org/2000/svg" viewBox="0 0 2000 2000">
  <path d="M1840.51,1834.8c11.03,0,20.03,8.83,19.86,20.03,0,10.86-9,19.69-19.86,19.69H227.25c-10.86,0-19.86-8.83-19.86-19.69-.17-11.2,8.83-20.2,19.86-20.03h60.77c-.51-3.73-1.53-7.47-1.53-11.2v-996.74c0-28.01,23.42-51.09,51.26-51.09h145.64v-500.92c0-28.01,23.09-51.26,51.09-51.26h543.01c11.03,0,19.86,9,19.86,20.03s-8.83,19.86-19.86,20.03h-542.84c-6.62,0-11.2,4.58-11.2,11.2l.17,500.92h386.51c6.79,0,13.58,1.53,19.69,4.07,6.11,2.72,11.54,6.45,16.3,11.03,9.17,9.17,15.11,22.07,15.11,35.99v996.74c0,3.73-.34,7.47-1.36,11.2h99.64c-1.02-2.72-1.02-5.6-1.02-8.49v-853.99c0-26.31,21.9-48.21,48.21-48.21h11.37v-89.12c-.17-10.86,8.66-19.86,19.69-20.03,11.03,0,20.03,9,19.86,20.03v89.12h469.51c26.48,0,48.21,21.9,48.21,48.38v853.82c0,2.89-1.02,5.77-1.02,8.49h166.18ZM1635.46,1826.31v-853.99c0-5.09-3.56-8.49-8.49-8.49h-520.44l.34.17c-3.73,0-6.62,1.87-7.98,5.09-1.02.85-1.02,2.04-1.02,3.39v853.82c0,3.9,2.04,6.62,5.09,7.81,1.19.34,2.21.68,3.56.68h140.21v-763.34c0-11.03,8.83-20.03,20.03-20.03h99.98c11.03,0,20.03,9,20.03,20.03v763.34h45.49v-763.34c0-11.03,9-20.03,20.03-20.03h100.15c11.03,0,20.03,9,19.86,20.03v763.17h54.66c4.92,0,8.49-3.23,8.49-8.32ZM1532.59,1834.63v-743.31h-60.43v743.31h60.43ZM1346.72,1834.63v-743.31h-60.09v743.31h60.09ZM920.83,1823.6v-996.91c0-6.45-4.58-11.2-11.2-11.2H337.76c-6.62,0-11.2,4.75-11.2,11.37v996.74c0,6.45,4.75,11.2,11.2,11.2h571.87c6.62,0,11.2-4.75,11.2-11.2Z"/>
  <path d="M1688.93,512.49c0,184.85-149.88,335.08-334.57,335.59h-1.02c-184.85,0-335.25-150.56-335.25-335.59s150.22-335.25,335.25-335.25h.34c184.85,0,335.25,150.39,335.25,335.25ZM1574.52,708.71c46.17-52.28,74.18-120.86,74.18-196.23,0-163.46-131.89-295.53-295.36-295.53h-.17c-163.29,0-295.36,132.06-295.36,295.53,0,75.54,28.01,144.11,74.35,196.23,43.96-76.39,126.46-127.48,221.01-127.48h.17c94.55,0,177.04,51.09,221.18,127.48ZM1539.72,737.4c-36.83-66.03-104.9-116.45-186.38-116.45s-150.39,50.75-187.06,116.78c52.45,43.45,118.48,70.27,187.06,70.44,68.58-.17,133.76-27.33,186.38-70.78Z"/>
  <path d="M1353.34,280.62c75.88,0,137.66,61.96,137.66,137.83s-61.79,137.83-137.66,137.83-137.83-61.96-137.83-137.83,61.96-137.83,137.83-137.83ZM1451.28,418.45c0-54.49-43.62-98.11-97.94-98.11s-98.11,43.62-98.11,98.11,43.79,97.94,98.11,97.94,97.94-43.62,97.94-97.94Z"/>
  <path d="M1091.59,778.65v19.52c0,27.84-23.09,50.92-51.09,50.92h-28.86c-11.03,0-19.86-9-19.86-20.03s9-19.69,19.86-19.69h28.86c6.62,0,11.2-4.58,11.2-11.2v-19.52c0-11.03,8.83-20.03,19.86-20.03s20.03,8.83,20.03,20.03Z"/>
  <path d="M990.43,343.76c11.03,0,20.03,9,20.03,19.86s-8.83,20.03-20.03,20.03h-75.54c-6.62,0-11.2,4.75-11.2,11.2v125.61c0,6.62,4.58,11.2,11.2,11.2h53.64c10.86,0,20.03,9,19.86,20.03,0,11.03-9,19.86-19.86,19.86h-53.64c-28.01,0-50.92-23.09-50.92-51.09v-125.44c0-28.01,22.92-51.09,50.92-51.09l75.54-.17Z"/>
  <path d="M987.03,618.92c10.86,0,19.69,9,19.69,19.86s-8.83,20.03-19.69,20.03h-72.14c-6.62,0-11.2,4.75-11.2,11.2v68.75c0,11.03-9,19.86-20.03,19.86s-19.86-9-19.69-19.86v-68.75c0-27.84,22.92-51.09,50.92-51.09h72.14Z"/>
  <path d="M843.77,1658.61v77.06c0,27.84-23.09,50.92-51.09,50.92h-81.65c-27.84,0-51.09-23.09-51.09-50.92v-77.06c0-27.84,23.26-50.92,51.09-50.92h81.65c28.01,0,51.09,23.09,51.09,50.92ZM803.88,1735.67v-77.06c0-6.62-4.58-11.2-11.2-11.2h-81.65c-6.62,0-11.2,4.58-11.2,11.2v77.06c0,6.62,4.75,11.2,11.2,11.2h81.65c6.62,0,11.2-4.58,11.2-11.2Z"/>
  <path d="M843.77,1449.48v77.06c0,27.84-23.09,50.92-51.09,50.92h-81.65c-27.84,0-51.09-23.09-51.09-50.92v-77.06c0-27.84,23.26-50.92,51.09-50.92h81.65c28.01,0,51.09,23.09,51.09,50.92ZM803.88,1526.54v-77.06c0-6.62-4.58-11.2-11.2-11.2h-81.65c-6.62,0-11.2,4.58-11.2,11.2v77.06c0,6.62,4.75,11.2,11.2,11.2h81.65c6.62,0,11.2-4.58,11.2-11.2Z"/>
  <path d="M843.77,1240.35v77.06c0,27.84-23.09,50.92-51.09,50.92h-81.65c-27.84,0-51.09-23.09-51.09-50.92v-77.06c0-27.84,23.26-50.92,51.09-50.92h81.65c28.01,0,51.09,23.09,51.09,50.92ZM803.88,1317.42v-77.06c0-6.45-4.58-11.2-11.2-11.2h-81.65c-6.62,0-11.2,4.75-11.2,11.2v77.06c0,6.62,4.75,11.2,11.2,11.2h81.65c6.62,0,11.2-4.58,11.2-11.2Z"/>
  <path d="M843.77,948.73v130.36c0,27.84-23.09,51.09-51.09,51.09h-337.96c-27.84,0-50.92-23.26-50.92-51.09v-130.36c0-27.84,23.09-51.26,50.92-51.26h337.96c28.01,0,51.09,23.42,51.09,51.26ZM803.88,1079.1v-130.36c0-6.62-4.58-11.2-11.2-11.2h-337.96c-6.62,0-11.2,4.58-11.2,11.2v130.36c0,6.62,4.75,11.2,11.2,11.2h337.96c6.62,0,11.2-4.58,11.2-11.2Z"/>
  <path d="M831.55,670.01v67.05c0,11.03-8.83,19.86-19.69,20.03-11.03,0-20.03-9-20.03-20.03v-67.05c0-6.45-4.75-11.2-11.2-11.2h-125.78c-6.45,0-11.2,4.75-11.2,11.2v67.05c0,11.03-8.83,20.03-20.03,20.03-10.86-.17-19.69-9-19.69-20.03v-67.05c0-27.84,23.09-51.09,50.92-51.09h125.78c28.01,0,50.92,23.26,50.92,51.09Z"/>
  <path d="M831.55,395.02v125.44c0,28.01-23.09,51.09-50.92,51.09h-125.78c-27.84,0-50.92-23.09-50.92-51.09v-125.44c0-28.01,23.09-51.09,50.92-51.09h125.78c27.84,0,50.92,23.09,50.92,51.09ZM791.82,520.47v-125.44c0-6.62-4.75-11.2-11.2-11.2h-125.78c-6.62,0-11.2,4.58-11.2,11.2v125.44c0,6.62,4.75,11.2,11.2,11.2h125.78c6.45,0,11.2-4.58,11.2-11.2Z"/>
  <path d="M587.45,1658.61v77.06c0,27.84-23.09,50.92-51.09,50.92h-81.65c-27.84,0-50.92-23.09-50.92-50.92v-77.06c0-27.84,23.09-50.92,50.92-50.92h81.65c28.01,0,51.09,23.09,51.09,50.92ZM547.73,1735.67v-77.06c0-6.62-4.75-11.2-11.37-11.2h-81.65c-6.62,0-11.2,4.58-11.2,11.2v77.06c0,6.62,4.75,11.2,11.2,11.2h81.65c6.62,0,11.37-4.58,11.37-11.2Z"/>
  <path d="M587.45,1449.48v77.06c0,27.84-23.09,50.92-51.09,50.92h-81.65c-27.84,0-50.92-23.09-50.92-50.92v-77.06c0-27.84,23.09-50.92,50.92-50.92h81.65c28.01,0,51.09,23.09,51.09,50.92ZM547.73,1526.54v-77.06c0-6.62-4.75-11.2-11.37-11.2h-81.65c-6.62,0-11.2,4.58-11.2,11.2v77.06c0,6.62,4.75,11.2,11.2,11.2h81.65c6.62,0,11.37-4.58,11.37-11.2Z"/>
  <path d="M587.45,1240.35v77.06c0,27.84-23.09,50.92-51.09,50.92h-81.65c-27.84,0-50.92-23.09-50.92-50.92v-77.06c0-27.84,23.09-50.92,50.92-50.92h81.65c28.01,0,51.09,23.09,51.09,50.92ZM547.73,1317.42v-77.06c0-6.45-4.75-11.2-11.37-11.2h-81.65c-6.62,0-11.2,4.75-11.2,11.2v77.06c0,6.62,4.75,11.2,11.2,11.2h81.65c6.62,0,11.37-4.58,11.37-11.2Z"/>
</svg>