<svg width="2000" height="2000" viewBox="0 0 2000 2000" fill="none" xmlns="http://www.w3.org/2000/svg">
<rect width="2000" height="2000" fill="white"/>
<ellipse cx="999.5" cy="1000" rx="651.5" ry="651" stroke="black" stroke-width="23"/>
<path d="M1205.2 1320.4H794.195C737.4 1320.4 691 1274 691 1217.2V806.195C691 749.4 737.4 703 794.195 703H1205.2C1262 703 1308.4 749.4 1308.4 806.195V1217.2C1308.4 1274.25 1262.25 1320.4 1205.2 1320.4Z" stroke="black" stroke-width="23"/>
<path d="M887.754 1123.89C917.673 1153.81 957.481 1170.29 999.824 1170.29C1042.17 1170.29 1081.72 1153.81 1111.89 1123.89C1141.81 1093.98 1158.29 1054.17 1158.29 1011.83C1158.29 969.482 1141.81 929.675 1111.89 899.756C1081.97 869.837 1042.17 853.356 999.824 853.356C957.481 853.356 917.673 869.837 887.754 899.756C857.835 929.675 841.355 969.482 841.355 1011.83C841.355 1054.17 857.835 1093.98 887.754 1123.89Z" stroke="black" stroke-width="23"/>
<path d="M1189.18 848.148C1205.99 848.148 1219.61 834.526 1219.61 817.722C1219.61 800.917 1205.99 787.295 1189.18 787.295C1172.38 787.295 1158.75 800.917 1158.75 817.722C1158.75 834.526 1172.38 848.148 1189.18 848.148Z" stroke="black" stroke-width="23"/>
</svg>
