<?xml version="1.0" encoding="UTF-8"?>
<svg id="Layer_1" data-name="Layer 1" xmlns="http://www.w3.org/2000/svg" viewBox="0 0 2000 2000">
  <path d="M1904.38,1153.24c-5-32.95-20.84-59.13-45.66-75.48-22.54-14.91-48.54-19.4-70.57-19.82.76-22.28-3.9-47.78-23.38-65.83-44.22-40.92-123.18-5.59-149.1,6.01-162.23,72.6-235.01,121.49-293.37,174.09-19.49-7.46-41.94-13.39-68.2-17.03-75.06-10.51-162.83,4.32-247.8,18.64-124.28,21.01-241.86,40.83-280.42-24.57-24.4-41.34-59.89-66.25-105.47-74.21-107.25-18.64-244.74,68.2-309.81,115.3v-21.01c0-17.96-14.57-32.53-32.53-32.53l-150.29.08c-17.96,0-32.53,14.57-32.53,32.53v435.88c0,17.96,14.57,32.53,32.53,32.53h150.46c17.96,0,32.53-14.57,32.53-32.53v-17.28c67.77,18.64,271.53,74.89,569.73,157.83,29.4,8.22,60.06,11.95,91.75,11.95,382.07,0,900.3-552.1,923.93-577.52,6.61-7.29,9.66-17.2,8.22-27.02h-.02ZM1642.35,1057.42c62.77-28.13,78.19-17.79,78.28-17.71,3.47,3.22,3.64,18.81.08,34.23l-300.48,199.25c-4.07-22.62-16.1-46.09-38.63-66.33,51.68-43.54,120.72-86.75,260.75-149.44h0ZM245.63,1572.76h-85.39l.08-370.81h85.39l-.08,370.81ZM897.86,1683.15c-330.91-92-545.49-151.14-587.17-162.66v-248.56c1.61-.93,3.13-1.86,4.57-3.13,50.07-41.6,200.44-145.97,294.13-129.62,26.35,4.57,46.09,18.64,60.49,43.12,61.25,103.86,206.62,79.38,347.26,55.66,80.06-13.47,162.83-27.45,228.07-18.47,75.23,10.42,110.22,42.53,111.57,69.64.59,11.44-4.74,24.23-15.93,36.68l-48.71,32.36c-11.95,5.08-25.16,9.74-40.75,13.47-145.8,35.07-417.23,83.02-419.94,83.53-17.71,3.13-29.48,19.99-26.43,37.7,2.8,15.76,16.52,26.86,32.02,26.86,1.86,0,3.81-.17,5.68-.51,2.71-.51,276.08-48.71,423.93-84.29,49.05-11.78,88.87-32.45,115.89-58.62l379.1-251.36c14.57-2.63,43.71-4.91,61.59,7.03,4.15,2.8,9.49,7.29,13.22,16.6-87.09,90.14-619.44,623.34-938.57,534.56h-.01Z"/>
  <path d="M999.95,1057.51c204,0,369.97-165.96,369.97-369.97s-165.96-369.97-369.97-369.97-369.97,165.96-369.97,369.97,165.96,369.97,369.97,369.97ZM999.95,382.66c168.16,0,304.91,136.82,304.91,304.91s-136.82,304.91-304.91,304.91-304.91-136.82-304.91-304.91,136.82-304.91,304.91-304.91Z"/>
  <path d="M906.93,830.72c1.61.85,25.84,12.88,59.98,17.88v31.85c0,17.96,14.57,32.53,32.53,32.53s32.53-14.57,32.53-32.53v-33.72c2.54-.51,5-.76,7.54-1.44,39.14-10.34,66.08-41.17,70.48-80.57,4.07-36.77-12.71-70.65-42.87-86.24-38.46-19.91-59.64-29.06-60.57-29.48-1.02-.42-2.12-.85-3.13-1.19-2.71-.85-17.2-7.2-21.69-17.11-2.54-5.68-1.61-13.47,2.71-23.3,5.59-12.54,12.96-16.44,17.96-18.3,20.25-7.37,51.17,3.64,60.32,7.96,16.1,7.88,35.67,1.27,43.54-14.91,7.88-16.1,1.27-35.67-14.91-43.54-3.98-1.95-28.89-13.39-59.39-16.35v-27.62c0-17.96-14.57-32.53-32.53-32.53s-32.53,14.57-32.53,32.53v39.65c-18.13,10.08-32.53,25.67-41.85,46.42-15.33,34.23-9.91,60.57-2.63,76.58,15.42,34.14,49.9,48.37,59.47,51.76,4.66,2.03,23.89,10.76,55.32,27.02,5.76,2.97,9.15,11.95,8.05,21.35-.76,7.29-4.83,20.16-22.36,24.82-43.29,11.44-85.31-8.98-86.41-9.49-15.93-8.13-35.41-1.86-43.71,14.06-8.13,16.01-1.78,35.67,14.15,43.88h0Z"/>
</svg>