<svg width="2000" height="2000" viewBox="0 0 2000 2000" fill="none" xmlns="http://www.w3.org/2000/svg">
<rect width="2000" height="2000" fill="white"/>
<ellipse cx="944.5" cy="1032" rx="651.5" ry="651" stroke="black" stroke-width="23"/>
<path d="M779.711 893.633H654.128V1294.11H779.711V893.633Z" stroke="black" stroke-width="23"/>
<path d="M1119.42 884.951C1114.79 884.373 1109.87 884.083 1104.95 883.794C1034.64 880.9 994.996 922.568 981.106 940.509C977.345 945.428 975.608 948.321 975.608 948.321V894.79H855.524V1295.26H975.608H981.106C981.106 1254.46 981.106 1213.95 981.106 1173.15C981.106 1151.16 981.106 1129.17 981.106 1107.18C981.106 1079.98 979.081 1051.04 992.681 1026.16C1004.26 1005.33 1025.09 994.908 1048.53 994.908C1117.97 994.908 1119.42 1057.7 1119.42 1063.49C1119.42 1063.78 1119.42 1064.07 1119.42 1064.07V1297H1245V1035.71C1245 946.296 1199.57 893.632 1119.42 884.951Z" stroke="black" stroke-width="23"/>
<path d="M716.919 841.837C757.19 841.837 789.837 809.191 789.837 768.919C789.837 728.647 757.19 696 716.919 696C676.647 696 644 728.647 644 768.919C644 809.191 676.647 841.837 716.919 841.837Z" stroke="black" stroke-width="23"/>
</svg>
