<?xml version="1.0" encoding="UTF-8"?>
<svg id="Layer_1" data-name="Layer 1" xmlns="http://www.w3.org/2000/svg" viewBox="0 0 2000 2000">
  <defs>
    <style>
      .cls-1 {
        fill-rule: evenodd;
      }
    </style>
  </defs>
  <path class="cls-1" d="M1806.06,1111.01c0,151.6-274.83,275.01-668.29,300.04-.36.02-.7.04-1.05.04-8.59,0-15.86-6.7-16.4-15.42-.02-.36.14-.68.14-1.05h-.18v-102.32h.24c.02-8.41,6.24-15.64,14.77-16.38,250.96-22.18,519.14-91.93,519.14-221.23,0-58.64-70.32-116.79-193.04-160.15-5.35-1.45-10.55-2.94-16.02-4.33-8.81-2.23-14.13-11.17-11.91-19.98,2.23-8.81,11.19-14.15,19.98-11.91,2.66.66,5.11,1.43,7.71,2.09,1.35.1,2.7.06,4.05.52,2.11.7,4.05,1.47,6.12,2.19,212.88,57.01,334.78,146.83,334.74,247.88ZM1443.42,699.66c0-42.06,34.23-76.31,76.31-76.31s76.31,34.23,76.31,76.31-34.23,76.31-76.31,76.31-76.31-34.21-76.31-76.31ZM1476.33,699.68c0,23.93,19.48,43.39,43.41,43.39s43.41-19.46,43.41-43.39-19.48-43.41-43.41-43.41-43.41,19.48-43.41,43.41ZM1184.76,933.63v-159.75c0-57.38,46.69-104.05,104.05-104.05s104.05,46.67,104.05,104.05v159.75c0,57.38-46.69,104.05-104.05,104.05s-104.03-46.67-104.05-104.05ZM1217.68,933.63c0,39.24,31.94,71.14,71.14,71.14s71.14-31.92,71.14-71.14v-159.75c0-39.22-31.92-71.14-71.14-71.14s-71.14,31.92-71.14,71.14v159.75ZM934.64,773.86v53.59c18.62-17.45,43.67-28.18,71.14-28.18,58.38,0,104.07,43.93,104.07,100.02v34.33c0,57.38-46.69,104.05-104.07,104.05s-104.05-46.67-104.05-104.05v-159.75c0-57.38,46.69-104.05,104.05-104.05s104.07,46.67,104.07,104.05c0,9.1-7.37,16.46-16.46,16.46s-16.46-7.37-16.46-16.46c0-39.22-31.9-71.14-71.14-71.14-39.2,0-71.14,31.92-71.14,71.12ZM934.66,933.63c0,39.24,31.92,71.14,71.14,71.14s71.14-31.92,71.14-71.14v-34.33c0-38.26-30.59-67.1-71.14-67.1s-71.14,31.92-71.14,71.14v30.29ZM725.38,1004.73h-97.18c-9.1,0-16.46,7.37-16.46,16.46s7.37,16.46,16.46,16.46h97.18c55.24,0,100.18-44.96,100.18-100.18,0-34.96-17.99-65.81-45.24-83.74,27.23-17.93,45.24-48.78,45.24-83.74,0-55.24-44.96-100.18-100.18-100.18h-97.18c-9.1,0-16.46,7.37-16.46,16.46s7.37,16.46,16.46,16.46h97.18c37.11,0,67.28,30.17,67.28,67.28s-30.19,67.28-67.28,67.28h-97.18c-9.1,0-16.46,7.37-16.46,16.46s7.37,16.46,16.46,16.46h97.18c37.11,0,67.28,30.17,67.28,67.28,0,37.11-30.17,67.28-67.28,67.24ZM942.69,1189.14c-4.71-4.71-11.81-6.1-17.93-3.56-6.14,2.54-10.16,8.55-10.16,15.21v79.72c-317.87-15.4-564.45-113.36-564.45-225.78,0-59.73,72.87-119.02,199.92-162.63.74-.26,1.27-.78,1.97-1.15.87-.22,1.69-.46,2.56-.68,8.81-2.23,14.15-11.19,11.91-19.98-2.23-8.81-11.19-14.17-19.98-11.91-224.09,56.65-352.61,148.76-352.61,252.67,0,157.6,308.74,286.62,720.7,302.62v72.17c0,6.66,4,12.66,10.16,15.21,2.05.85,4.17,1.27,6.3,1.27,4.27,0,8.49-1.69,11.63-4.83l142.53-142.53c3.08-3.08,4.83-7.27,4.83-11.63s-1.75-8.55-4.83-11.63l-142.55-142.55Z"/>
</svg>